<?xml version="1.0" standalone="no"?>
<!DOCTYPE svg PUBLIC "-//W3C//DTD SVG 20010904//EN"
 "http://www.w3.org/TR/2001/REC-SVG-20010904/DTD/svg10.dtd">
<svg version="1.0" xmlns="http://www.w3.org/2000/svg"
 width="384.000000pt" height="384.000000pt" viewBox="0 0 384.000000 384.000000"
 preserveAspectRatio="xMidYMid meet">
<metadata>
Created by potrace 1.11, written by Peter Selinger 2001-2013
</metadata>
<g transform="translate(0.000000,384.000000) scale(0.100000,-0.100000)"
fill="#000000" stroke="none">
<path d="M0 1920 l0 -1920 1920 0 1920 0 0 1920 0 1920 -1920 0 -1920 0 0
-1920z m2380 885 c16 -19 9 -323 -14 -685 -8 -124 -18 -281 -22 -349 -6 -116
-8 -125 -34 -155 l-28 -31 -409 -3 c-436 -2 -438 -2 -474 48 -15 21 -20 71
-34 310 -9 157 -20 349 -25 427 -15 209 -13 440 3 446 6 3 240 6 518 6 445 1
508 -1 519 -14z m-1180 -500 c6 -115 15 -280 20 -365 5 -85 14 -249 21 -365 7
-123 17 -223 25 -242 7 -18 28 -42 46 -53 32 -19 49 -20 548 -20 499 0 516 1
548 20 18 11 39 35 46 53 8 19 18 121 26 252 6 121 16 290 21 375 5 85 12 309
16 498 3 188 9 342 12 342 13 0 51 -41 67 -72 14 -26 15 -40 5 -82 -6 -28 -18
-125 -26 -216 -9 -91 -20 -212 -25 -270 -27 -277 -40 -438 -40 -478 0 -77 42
-123 128 -137 l42 -7 0 -309 c0 -342 -1 -346 -62 -393 -24 -17 -49 -25 -91
-28 l-57 -3 0 31 c0 49 -26 100 -63 123 -34 21 -44 21 -548 21 -498 0 -515 -1
-547 -20 -37 -23 -62 -72 -62 -123 l0 -33 -66 7 c-71 7 -111 34 -133 88 -8 17
-10 128 -9 331 l3 305 41 5 c52 7 89 31 110 71 15 29 14 49 -5 278 -12 135
-28 311 -36 391 -7 80 -16 181 -20 225 -3 44 -10 103 -16 131 -11 59 8 124 45
149 l21 15 2 -142 c1 -79 7 -237 13 -353z m-61 -190 c39 -431 39 -448 -10
-489 -29 -25 -75 -43 -84 -34 -2 2 2 96 9 209 8 112 19 301 26 419 16 293 21
315 36 150 6 -74 17 -189 23 -255z m1516 -104 c13 -228 23 -417 21 -419 -3 -2
-25 5 -49 16 -84 37 -93 74 -72 277 12 114 18 175 47 485 17 183 22 150 53
-359z m-1217 -698 c-10 -2 -26 -2 -35 0 -10 3 -2 5 17 5 19 0 27 -2 18 -5z
m880 0 c-10 -2 -26 -2 -35 0 -10 3 -2 5 17 5 19 0 27 -2 18 -5z m412 -653 c0
-20 -7 -20 -859 -20 -563 0 -862 3 -866 10 -3 6 -3 15 0 20 4 7 303 10 866 10
852 0 859 0 859 -20z"/>
</g>
</svg>
